<svg id="Layer_1" data-name="Layer 1" xmlns="http://www.w3.org/2000/svg" viewBox="0 0 127.72 127.72"><defs><style>.cls-1{fill:#fff;}.cls-2{fill:#e9f1f4;}.cls-3{fill:#d8e5ea;}.cls-4{fill:#33363a;}.cls-5{fill:#ff8f8f;}.cls-6{fill:#ff1a1a;}.cls-7{fill:#a7bbc1;}</style></defs><title>logoutMesa de trabajo 1</title><path class="cls-1" d="M80,9.58l40.91,40.91c7.09,7.1,7.08,19.67,0,26.75L80,118.14A18.91,18.91,0,1,1,53.25,91.4l8.62-8.62H20.41a18.91,18.91,0,0,1,0-37.82H61.88l-8.63-8.64A18.91,18.91,0,1,1,80,9.58Z"/><path class="cls-2" d="M126.21,63.62a18.87,18.87,0,0,1-5.31,13.62L80,118.14A18.91,18.91,0,1,1,53.25,91.4l8.62-8.62H20.41A18.91,18.91,0,0,1,1.5,63.87c0-.09,0-.16,0-.25Z"/><path class="cls-3" d="M53.25,36.32a18.84,18.84,0,0,1-3-22.79l37,37c7.09,7.1,7.08,19.67,0,26.75l-36.95,37a18.9,18.9,0,0,1,3-22.79l8.62-8.62H20.41a18.91,18.91,0,0,1,0-37.82H61.88Z"/><path class="cls-2" d="M92.52,63.86H1.5A18.91,18.91,0,0,1,20.41,45H61.88l-8.63-8.64a18.84,18.84,0,0,1-3-22.79l37,37A18.9,18.9,0,0,1,92.52,63.86Z"/><path class="cls-4" d="M0,63.87A20.43,20.43,0,0,1,20.41,43.46H58.26l-6.07-6.08A20.41,20.41,0,1,1,81.06,8.52h0L122,49.43a20.49,20.49,0,0,1,5.75,14.43h0A20.44,20.44,0,0,1,122,78.3l-40.9,40.9A20.41,20.41,0,1,1,52.19,90.34l6.06-6.06H20.41A20.44,20.44,0,0,1,0,63.87ZM63.38,45a1.6,1.6,0,0,1-.11.57,1.51,1.51,0,0,1-1.39.93H20.41a17.41,17.41,0,0,0,0,34.82H61.87a1.5,1.5,0,0,1,1.06,2.56l-8.62,8.62a17.41,17.41,0,0,0,24.63,24.62l40.9-40.9a17.45,17.45,0,0,0,4.88-12.31h0a17.46,17.46,0,0,0-4.87-12.31L78.94,10.64h0A17.41,17.41,0,1,0,54.31,35.26l8.63,8.64A1.47,1.47,0,0,1,63.38,45Z"/><path class="cls-4" d="M60.37,82.89a1.49,1.49,0,0,1,.44-1.06l9.09-9.1A1.5,1.5,0,1,1,72,74.85L62.93,84a1.51,1.51,0,0,1-2.12,0A1.53,1.53,0,0,1,60.37,82.89Z"/><path class="cls-4" d="M60.37,44.84a1.53,1.53,0,0,1,.44-1.07,1.51,1.51,0,0,1,2.12,0L72,52.87A1.49,1.49,0,0,1,72,55a1.51,1.51,0,0,1-2.12,0L60.81,45.9A1.53,1.53,0,0,1,60.37,44.84Z"/><path class="cls-5" d="M76.66,81.29A17.43,17.43,0,1,1,94.09,63.86,17.43,17.43,0,0,1,76.66,81.29Z"/><path class="cls-6" d="M76.66,81.29c-7.37,0-13.34-7.81-13.34-17.43s6-17.42,13.34-17.42S90,54.24,90,63.86,84,81.29,76.66,81.29Z"/><path class="cls-1" d="M76.66,46.44a17.43,17.43,0,0,0,0,34.85Z"/><path class="cls-3" d="M63.32,63.86c0,9.62,6,17.43,13.34,17.43V46.44C69.29,46.44,63.32,54.24,63.32,63.86Z"/><path class="cls-4" d="M95.59,63.86A18.93,18.93,0,1,0,76.66,82.79,18.95,18.95,0,0,0,95.59,63.86Zm-3,0A16,16,0,0,1,78.16,79.71V48A16,16,0,0,1,92.59,63.86Zm-31.85,0A15.94,15.94,0,0,1,75.16,48v31.7A15.94,15.94,0,0,1,60.74,63.86Z"/><circle class="cls-7" cx="74.67" cy="63.86" r="5.76"/><circle class="cls-1" cx="76.62" cy="63.86" r="5.76"/><path class="cls-3" d="M72.55,59.79a5.76,5.76,0,1,1,8.15,8.14"/><path class="cls-4" d="M69.36,63.86A7.27,7.27,0,1,1,81.76,69h0a7.27,7.27,0,0,1-10.27,0A7.25,7.25,0,0,1,69.36,63.86Zm11.53,0a4.27,4.27,0,1,0-1.25,3h0A4.24,4.24,0,0,0,80.89,63.86Z"/><path class="cls-4" d="M39.35,68.62a1.45,1.45,0,0,1,.44-1.06l3.69-3.7-3.69-3.69A1.5,1.5,0,0,1,41.91,58l4.76,4.76a1.55,1.55,0,0,1,0,2.12l-4.76,4.76a1.51,1.51,0,0,1-2.12,0A1.53,1.53,0,0,1,39.35,68.62Z"/><path class="cls-4" d="M33.37,63.86a1.5,1.5,0,0,1,1.5-1.5H45.61a1.5,1.5,0,0,1,0,3H34.87A1.5,1.5,0,0,1,33.37,63.86Z"/><path class="cls-4" d="M28.86,63.86a1.5,1.5,0,0,1,.44-1.06,1.52,1.52,0,0,1,1.06-.44,1.5,1.5,0,0,1,1.06.44,1.55,1.55,0,0,1,0,2.12,1.5,1.5,0,0,1-1.06.44,1.5,1.5,0,0,1-1.5-1.5Z"/><path class="cls-4" d="M24.36,63.86a1.5,1.5,0,0,1,.44-1.06,1.52,1.52,0,0,1,1.06-.44,1.5,1.5,0,0,1,1.06.44,1.55,1.55,0,0,1,0,2.12,1.5,1.5,0,0,1-1.06.44,1.5,1.5,0,0,1-1.5-1.5Z"/><path class="cls-4" d="M19.86,63.86a1.52,1.52,0,0,1,.44-1.06,1.5,1.5,0,0,1,2.12,0,1.55,1.55,0,0,1,0,2.12,1.5,1.5,0,0,1-1.06.44,1.52,1.52,0,0,1-1.06-.44A1.5,1.5,0,0,1,19.86,63.86Z"/><path class="cls-4" d="M22.05,31.51l4.75-4.75h0a1.48,1.48,0,0,0,.43-1.06,1.51,1.51,0,0,0-.43-1.06h0l-4.75-4.75A1.5,1.5,0,0,0,19.93,22l2.19,2.19H15a1.5,1.5,0,0,0,0,3h7.11l-2.19,2.2a1.5,1.5,0,0,0,0,2.12A1.49,1.49,0,0,0,22.05,31.51Z"/><path class="cls-4" d="M11.56,24.63A1.5,1.5,0,0,0,9,25.69a1.49,1.49,0,0,0,1.5,1.5,1.52,1.52,0,0,0,1.06-.44A1.55,1.55,0,0,0,11.56,24.63Z"/><path class="cls-4" d="M7.06,24.63A1.5,1.5,0,0,0,4.5,25.69a1.5,1.5,0,0,0,.44,1.06,1.5,1.5,0,0,0,2.12,0A1.55,1.55,0,0,0,7.06,24.63Z"/><path class="cls-4" d="M2.56,24.63a1.52,1.52,0,0,0-1.06-.44A1.5,1.5,0,0,0,0,25.69a1.56,1.56,0,0,0,.44,1.07,1.55,1.55,0,0,0,1.06.43,1.52,1.52,0,0,0,1.06-.44A1.55,1.55,0,0,0,2.56,24.63Z"/><path class="cls-4" d="M22.05,107.85l4.75-4.76h0a1.5,1.5,0,0,0,.43-1.06,1.48,1.48,0,0,0-.43-1.06h0l-4.75-4.76a1.51,1.51,0,0,0-2.12,0,1.49,1.49,0,0,0,0,2.12l2.19,2.2H15a1.5,1.5,0,0,0,0,3h7.11l-2.19,2.19a1.51,1.51,0,0,0,0,2.13A1.51,1.51,0,0,0,22.05,107.85Z"/><path class="cls-4" d="M11.56,101a1.55,1.55,0,0,0-1.06-.43,1.52,1.52,0,0,0-1.06.44A1.5,1.5,0,0,0,9,102a1.5,1.5,0,0,0,2.56,1.06A1.56,1.56,0,0,0,11.56,101Z"/><path class="cls-4" d="M7.06,101a1.5,1.5,0,0,0-2.12,0A1.5,1.5,0,0,0,4.5,102a1.5,1.5,0,0,0,2.56,1.06A1.55,1.55,0,0,0,7.06,101Z"/><path class="cls-4" d="M2.56,101a1.55,1.55,0,0,0-1.06-.43A1.52,1.52,0,0,0,.44,101,1.5,1.5,0,0,0,0,102a1.5,1.5,0,0,0,1.5,1.5,1.52,1.52,0,0,0,1.06-.44A1.56,1.56,0,0,0,2.56,101Z"/></svg>