<svg id="Layer_1" data-name="Layer 1" xmlns="http://www.w3.org/2000/svg" viewBox="0 0 127.19 127.19"><defs><style>.cls-1{fill:#818084;}.cls-2{fill:#e9eaec;}.cls-3{fill:#b0b0b5;}.cls-4{fill:#646468;}.cls-5{fill:#fff;}.cls-6{fill:#d8e5ea;}.cls-7{fill:#33363a;}.cls-8{fill:#a7bbc1;}</style></defs><title>favMesa de trabajo 1</title><path class="cls-1" d="M125.29,49a8.37,8.37,0,0,0-6.78-5.72L85.77,38.46,71.13,8.79a8.41,8.41,0,0,0-15.07,0L41.42,38.46,8.69,43.23A8.4,8.4,0,0,0,4,57.56L27.72,80.64l-5.6,32.61a8.4,8.4,0,0,0,12.2,8.85L63.6,106.72,92.87,122.1a8.4,8.4,0,0,0,12.2-8.85l-5.6-32.61,23.69-23.08A8.37,8.37,0,0,0,125.29,49Z"/><path class="cls-2" d="M63.6,4.11a8.41,8.41,0,0,0-7.54,4.68L41.42,38.46,8.69,43.23A8.4,8.4,0,0,0,4,57.56L27.72,80.64l-5.6,32.61a8.4,8.4,0,0,0,12.2,8.85L63.6,106.72Z"/><circle class="cls-3" cx="63.6" cy="68.77" r="21.93"/><path class="cls-4" d="M85.53,68.77c0,9.27-9.82,16.8-21.93,16.8S41.67,78,41.67,68.77,51.48,52,63.6,52,85.53,59.49,85.53,68.77Z"/><path class="cls-5" d="M41.67,68.77a21.93,21.93,0,1,0,43.86,0Z"/><path class="cls-6" d="M63.6,85.57c12.11,0,21.93-7.53,21.93-16.8H41.67C41.67,78,51.49,85.57,63.6,85.57Z"/><path class="cls-7" d="M126.72,48.49a9.8,9.8,0,0,0-8-6.74L86.77,37.09l-14.29-29a9.9,9.9,0,0,0-17.76,0l-14.29,29L8.48,41.74a9.84,9.84,0,0,0-8,6.75A10,10,0,0,0,3,58.63L26.11,81.16,20.65,113a9.83,9.83,0,0,0,3.94,9.69,10,10,0,0,0,5.82,1.89A9.87,9.87,0,0,0,35,123.43l28.58-15,28.57,15A9.9,9.9,0,0,0,106.55,113l-5.47-31.84,23.13-22.53A10,10,0,0,0,126.72,48.49ZM84,70.27a20.41,20.41,0,0,1-40.71,0Zm-40.71-3a20.41,20.41,0,0,1,40.71,0Zm78.88-10.79L98.42,79.56A1.52,1.52,0,0,0,98,80.89l5.6,32.61a6.87,6.87,0,0,1-2.74,6.76,7,7,0,0,1-7.28.51l-28.47-15V92.28a.59.59,0,0,0,0-.13,23.43,23.43,0,1,0-3,0s0,.09,0,.13v13.53l-28.48,15a6.9,6.9,0,0,1-10-7.27l5.6-32.62a1.53,1.53,0,0,0-.43-1.33L5.07,56.48a7,7,0,0,1-1.74-7.07,6.82,6.82,0,0,1,5.57-4.7L41.64,40a1.5,1.5,0,0,0,1.13-.82L57.41,9.46a6.91,6.91,0,0,1,12.38,0L84.43,39.13a1.5,1.5,0,0,0,1.13.82l32.74,4.77a6.8,6.8,0,0,1,5.56,4.69A6.94,6.94,0,0,1,122.12,56.48Z"/><circle class="cls-8" cx="63.6" cy="71.28" r="7.25"/><circle class="cls-5" cx="63.6" cy="68.81" r="7.25"/><path class="cls-6" d="M58.47,73.94A7.25,7.25,0,0,1,68.72,63.69"/><path class="cls-7" d="M63.6,77.56A8.75,8.75,0,1,1,69.79,75,8.72,8.72,0,0,1,63.6,77.56Zm0-14.5a5.76,5.76,0,1,0,4.06,1.69h0A5.69,5.69,0,0,0,63.6,63.06Z"/></svg>